<svg xmlns="http://www.w3.org/2000/svg" xmlns:xlink="http://www.w3.org/1999/xlink" width="500" zoomAndPan="magnify" viewBox="0 0 375 374.999991" height="500" preserveAspectRatio="xMidYMid meet" version="1.0"><defs><g/><clipPath id="7d44d4d627"><path d="M 136.445312 110.933594 L 238.445312 110.933594 L 238.445312 205.433594 L 136.445312 205.433594 Z M 136.445312 110.933594 " clip-rule="nonzero"/></clipPath><clipPath id="92fd3d96c6"><path d="M 136.445312 132 L 238.445312 132 L 238.445312 141 L 136.445312 141 Z M 136.445312 132 " clip-rule="nonzero"/></clipPath></defs><path fill="#6071ff" d="M 168.078125 180.121094 C 167.074219 180.121094 166.214844 179.765625 165.503906 179.054688 L 155.792969 169.347656 C 155.453125 169.003906 155.1875 168.609375 155.003906 168.164062 C 154.820312 167.71875 154.726562 167.253906 154.726562 166.769531 C 154.726562 166.285156 154.820312 165.820312 155.003906 165.375 C 155.1875 164.929688 155.453125 164.535156 155.792969 164.195312 L 165.503906 154.480469 C 165.847656 154.140625 166.242188 153.875 166.6875 153.691406 C 167.132812 153.507812 167.597656 153.414062 168.082031 153.414062 C 168.566406 153.414062 169.03125 153.507812 169.476562 153.691406 C 169.921875 153.875 170.316406 154.140625 170.65625 154.480469 C 171 154.824219 171.261719 155.21875 171.449219 155.664062 C 171.632812 156.109375 171.722656 156.574219 171.722656 157.058594 C 171.722656 157.542969 171.628906 158.007812 171.445312 158.453125 C 171.261719 158.898438 170.996094 159.292969 170.65625 159.632812 L 163.515625 166.769531 L 170.65625 173.90625 C 170.910156 174.160156 171.121094 174.445312 171.289062 174.761719 C 171.460938 175.082031 171.582031 175.417969 171.652344 175.769531 C 171.722656 176.121094 171.738281 176.476562 171.703125 176.835938 C 171.667969 177.195312 171.582031 177.539062 171.445312 177.871094 C 171.304688 178.207031 171.121094 178.511719 170.894531 178.789062 C 170.664062 179.066406 170.402344 179.308594 170.101562 179.507812 C 169.804688 179.707031 169.480469 179.859375 169.136719 179.964844 C 168.792969 180.070312 168.441406 180.121094 168.078125 180.121094 Z M 168.078125 180.121094 " fill-opacity="1" fill-rule="nonzero"/><path fill="#6071ff" d="M 206.917969 180.121094 C 206.558594 180.121094 206.207031 180.070312 205.863281 179.964844 C 205.519531 179.859375 205.195312 179.707031 204.894531 179.507812 C 204.597656 179.308594 204.332031 179.066406 204.105469 178.789062 C 203.875 178.511719 203.691406 178.207031 203.554688 177.871094 C 203.417969 177.539062 203.332031 177.195312 203.296875 176.835938 C 203.261719 176.476562 203.277344 176.121094 203.347656 175.769531 C 203.417969 175.417969 203.539062 175.082031 203.707031 174.761719 C 203.878906 174.445312 204.089844 174.160156 204.34375 173.90625 L 211.480469 166.769531 L 204.34375 159.632812 C 204.003906 159.292969 203.738281 158.898438 203.554688 158.453125 C 203.371094 158.007812 203.277344 157.542969 203.277344 157.058594 C 203.277344 156.578125 203.367188 156.113281 203.554688 155.664062 C 203.738281 155.21875 204 154.824219 204.34375 154.484375 C 204.683594 154.140625 205.078125 153.878906 205.523438 153.695312 C 205.96875 153.507812 206.433594 153.417969 206.917969 153.417969 C 207.402344 153.414062 207.867188 153.507812 208.3125 153.691406 C 208.757812 153.878906 209.152344 154.140625 209.492188 154.480469 L 219.203125 164.195312 C 219.546875 164.535156 219.808594 164.929688 219.996094 165.375 C 220.179688 165.820312 220.273438 166.285156 220.273438 166.769531 C 220.273438 167.253906 220.179688 167.71875 219.996094 168.164062 C 219.808594 168.609375 219.546875 169.003906 219.203125 169.347656 L 209.492188 179.054688 C 208.78125 179.765625 207.925781 180.121094 206.917969 180.121094 Z M 206.917969 180.121094 " fill-opacity="1" fill-rule="nonzero"/><path fill="#6071ff" d="M 182.640625 180.121094 C 182.332031 180.121094 182.027344 180.082031 181.726562 180.003906 C 181.425781 179.925781 181.140625 179.808594 180.871094 179.660156 C 180.597656 179.507812 180.351562 179.324219 180.125 179.109375 C 179.902344 178.898438 179.710938 178.65625 179.546875 178.394531 C 179.382812 178.128906 179.253906 177.847656 179.164062 177.554688 C 179.074219 177.257812 179.019531 176.953125 179.007812 176.644531 C 178.992188 176.332031 179.015625 176.027344 179.082031 175.722656 C 179.144531 175.417969 179.246094 175.128906 179.386719 174.851562 L 189.09375 155.429688 C 189.3125 154.996094 189.601562 154.621094 189.96875 154.304688 C 190.335938 153.988281 190.75 153.757812 191.207031 153.605469 C 191.667969 153.453125 192.136719 153.394531 192.621094 153.429688 C 193.101562 153.464844 193.558594 153.589844 193.992188 153.808594 C 194.425781 154.027344 194.796875 154.316406 195.113281 154.683594 C 195.429688 155.050781 195.664062 155.460938 195.816406 155.921875 C 195.96875 156.378906 196.027344 156.851562 195.992188 157.335938 C 195.957031 157.816406 195.828125 158.273438 195.613281 158.707031 L 185.90625 178.125 C 185.59375 178.738281 185.144531 179.226562 184.554688 179.585938 C 183.96875 179.945312 183.332031 180.125 182.640625 180.121094 Z M 182.640625 180.121094 " fill-opacity="1" fill-rule="nonzero"/><g clip-path="url(#7d44d4d627)"><path fill="#6071ff" d="M 234.835938 205.609375 L 140.160156 205.609375 C 139.679688 205.609375 139.214844 205.519531 138.769531 205.332031 C 138.320312 205.148438 137.929688 204.886719 137.585938 204.542969 C 137.246094 204.203125 136.980469 203.808594 136.796875 203.363281 C 136.613281 202.917969 136.519531 202.453125 136.519531 201.96875 L 136.519531 114.574219 C 136.519531 114.09375 136.613281 113.628906 136.796875 113.183594 C 136.980469 112.738281 137.246094 112.34375 137.585938 112 C 137.929688 111.660156 138.320312 111.398438 138.769531 111.210938 C 139.214844 111.027344 139.679688 110.933594 140.160156 110.933594 L 234.835938 110.933594 C 235.320312 110.933594 235.785156 111.027344 236.230469 111.210938 C 236.675781 111.398438 237.070312 111.660156 237.414062 112 C 237.753906 112.34375 238.015625 112.738281 238.203125 113.183594 C 238.386719 113.628906 238.480469 114.09375 238.480469 114.574219 L 238.480469 201.96875 C 238.480469 202.453125 238.386719 202.917969 238.203125 203.363281 C 238.015625 203.808594 237.753906 204.203125 237.414062 204.542969 C 237.070312 204.886719 236.675781 205.148438 236.230469 205.332031 C 235.785156 205.519531 235.320312 205.609375 234.835938 205.609375 Z M 143.804688 198.328125 L 231.195312 198.328125 L 231.195312 118.21875 L 143.804688 118.21875 Z M 143.804688 198.328125 " fill-opacity="1" fill-rule="nonzero"/></g><g clip-path="url(#92fd3d96c6)"><path fill="#6071ff" d="M 234.835938 140.066406 L 140.160156 140.066406 C 139.679688 140.066406 139.214844 139.972656 138.769531 139.789062 C 138.320312 139.605469 137.929688 139.339844 137.585938 139 C 137.246094 138.65625 136.980469 138.265625 136.796875 137.816406 C 136.613281 137.371094 136.519531 136.90625 136.519531 136.425781 C 136.519531 135.941406 136.613281 135.476562 136.796875 135.03125 C 136.980469 134.585938 137.246094 134.191406 137.585938 133.847656 C 137.929688 133.507812 138.320312 133.246094 138.769531 133.058594 C 139.214844 132.875 139.679688 132.78125 140.160156 132.78125 L 234.835938 132.78125 C 235.320312 132.78125 235.785156 132.875 236.230469 133.058594 C 236.675781 133.246094 237.070312 133.507812 237.414062 133.847656 C 237.753906 134.191406 238.015625 134.585938 238.203125 135.03125 C 238.386719 135.476562 238.480469 135.941406 238.480469 136.425781 C 238.480469 136.90625 238.386719 137.371094 238.203125 137.816406 C 238.015625 138.265625 237.753906 138.65625 237.414062 139 C 237.070312 139.339844 236.675781 139.605469 236.230469 139.789062 C 235.785156 139.972656 235.320312 140.066406 234.835938 140.066406 Z M 234.835938 140.066406 " fill-opacity="1" fill-rule="nonzero"/></g><path fill="#6071ff" d="M 202.066406 129.140625 C 201.820312 129.132812 201.578125 129.109375 201.335938 129.070312 C 201.105469 129.027344 200.890625 128.957031 200.679688 128.851562 C 200.449219 128.769531 200.226562 128.660156 200.023438 128.523438 L 199.480469 128.085938 C 199.140625 127.742188 198.878906 127.34375 198.699219 126.898438 C 198.515625 126.449219 198.421875 125.984375 198.421875 125.5 C 198.421875 125.015625 198.515625 124.550781 198.699219 124.105469 C 198.878906 123.65625 199.140625 123.261719 199.480469 122.914062 C 200.007812 122.40625 200.628906 122.082031 201.351562 121.941406 C 202.070312 121.804688 202.769531 121.875 203.449219 122.148438 C 203.675781 122.222656 203.878906 122.332031 204.066406 122.476562 C 204.28125 122.625 204.46875 122.769531 204.648438 122.914062 C 204.988281 123.261719 205.25 123.65625 205.433594 124.105469 C 205.613281 124.550781 205.707031 125.015625 205.707031 125.5 C 205.707031 125.984375 205.613281 126.449219 205.433594 126.898438 C 205.25 127.34375 204.988281 127.742188 204.648438 128.085938 C 204.292969 128.410156 203.890625 128.664062 203.449219 128.851562 C 203.007812 129.039062 202.546875 129.136719 202.066406 129.140625 Z M 202.066406 129.140625 " fill-opacity="1" fill-rule="nonzero"/><path fill="#6071ff" d="M 212.988281 129.140625 C 212.746094 129.132812 212.503906 129.109375 212.261719 129.070312 C 212.03125 129.027344 211.8125 128.957031 211.605469 128.851562 C 211.371094 128.769531 211.152344 128.660156 210.945312 128.523438 C 210.757812 128.386719 210.578125 128.242188 210.402344 128.085938 C 210.0625 127.738281 209.808594 127.339844 209.640625 126.882812 C 209.234375 125.960938 209.234375 125.039062 209.640625 124.117188 C 209.824219 123.671875 210.078125 123.273438 210.402344 122.914062 C 210.660156 122.65625 210.945312 122.445312 211.261719 122.273438 C 211.582031 122.101562 211.917969 121.980469 212.273438 121.910156 C 212.628906 121.835938 212.984375 121.820312 213.34375 121.855469 C 213.703125 121.890625 214.050781 121.976562 214.386719 122.117188 C 214.71875 122.253906 215.027344 122.4375 215.304688 122.667969 C 215.585938 122.898438 215.824219 123.164062 216.023438 123.464844 C 216.222656 123.765625 216.375 124.089844 216.480469 124.4375 C 216.582031 124.785156 216.632812 125.136719 216.628906 125.5 C 216.617188 126.5 216.265625 127.363281 215.574219 128.085938 C 215.402344 128.242188 215.21875 128.386719 215.027344 128.523438 C 214.824219 128.660156 214.605469 128.769531 214.371094 128.851562 C 214.164062 128.957031 213.945312 129.027344 213.71875 129.070312 C 213.476562 129.109375 213.234375 129.136719 212.988281 129.140625 Z M 212.988281 129.140625 " fill-opacity="1" fill-rule="nonzero"/><path fill="#6071ff" d="M 223.914062 129.140625 C 223.429688 129.148438 222.960938 129.058594 222.515625 128.875 C 222.066406 128.691406 221.671875 128.429688 221.328125 128.085938 C 220.984375 127.742188 220.722656 127.347656 220.539062 126.898438 C 220.355469 126.449219 220.265625 125.984375 220.273438 125.5 C 220.257812 125.015625 220.355469 124.554688 220.5625 124.117188 C 220.75 123.671875 221.003906 123.273438 221.328125 122.914062 C 221.679688 122.589844 222.078125 122.339844 222.523438 122.164062 C 222.972656 121.992188 223.433594 121.90625 223.914062 121.90625 C 224.390625 121.90625 224.855469 121.992188 225.300781 122.164062 C 225.746094 122.339844 226.148438 122.589844 226.5 122.914062 C 226.824219 123.273438 227.078125 123.671875 227.261719 124.117188 C 227.453125 124.558594 227.546875 125.019531 227.554688 125.5 C 227.558594 125.984375 227.46875 126.449219 227.289062 126.898438 C 227.105469 127.347656 226.839844 127.742188 226.5 128.085938 C 226.15625 128.429688 225.761719 128.691406 225.3125 128.875 C 224.863281 129.058594 224.398438 129.148438 223.914062 129.140625 Z M 223.914062 129.140625 " fill-opacity="1" fill-rule="nonzero"/><g fill="#ebebff" fill-opacity="1"><g transform="translate(46.523439, 240.265254)"><g><path d="M 30.53125 0 L 22.328125 0 L 19.859375 -11.203125 C 19.742188 -11.671875 19.5625 -12.597656 19.3125 -13.984375 C 19.0625 -15.378906 18.875 -16.546875 18.75 -17.484375 C 18.65625 -16.722656 18.503906 -15.773438 18.296875 -14.640625 C 18.085938 -13.515625 17.878906 -12.476562 17.671875 -11.53125 C 17.472656 -10.582031 16.625 -6.738281 15.125 0 L 6.90625 0 L 0.546875 -25.703125 L 7.25 -25.703125 L 10.03125 -12.8125 C 10.664062 -9.96875 11.101562 -7.703125 11.34375 -6.015625 C 11.488281 -7.210938 11.757812 -8.832031 12.15625 -10.875 C 12.550781 -12.925781 12.914062 -14.628906 13.25 -15.984375 L 15.515625 -25.703125 L 21.953125 -25.703125 L 24.15625 -15.984375 C 24.53125 -14.421875 24.910156 -12.617188 25.296875 -10.578125 C 25.679688 -8.546875 25.9375 -7.023438 26.0625 -6.015625 C 26.21875 -7.316406 26.632812 -9.570312 27.3125 -12.78125 L 30.171875 -25.703125 L 36.859375 -25.703125 Z M 30.53125 0 "/></g></g><g transform="translate(83.929686, 240.265254)"><g><path d="M 11.984375 0.359375 C 8.671875 0.359375 6.097656 -0.519531 4.265625 -2.28125 C 2.429688 -4.050781 1.515625 -6.566406 1.515625 -9.828125 C 1.515625 -13.191406 2.363281 -15.769531 4.0625 -17.5625 C 5.757812 -19.363281 8.1875 -20.265625 11.34375 -20.265625 C 14.34375 -20.265625 16.660156 -19.484375 18.296875 -17.921875 C 19.929688 -16.359375 20.75 -14.101562 20.75 -11.15625 L 20.75 -8.109375 L 8.453125 -8.109375 C 8.503906 -6.992188 8.910156 -6.117188 9.671875 -5.484375 C 10.441406 -4.847656 11.488281 -4.53125 12.8125 -4.53125 C 14.019531 -4.53125 15.128906 -4.644531 16.140625 -4.875 C 17.160156 -5.101562 18.257812 -5.492188 19.4375 -6.046875 L 19.4375 -1.109375 C 18.363281 -0.554688 17.25 -0.175781 16.09375 0.03125 C 14.945312 0.25 13.578125 0.359375 11.984375 0.359375 Z M 11.578125 -15.59375 C 10.773438 -15.59375 10.097656 -15.335938 9.546875 -14.828125 C 9.003906 -14.316406 8.6875 -13.515625 8.59375 -12.421875 L 14.5 -12.421875 C 14.476562 -13.390625 14.207031 -14.160156 13.6875 -14.734375 C 13.164062 -15.304688 12.460938 -15.59375 11.578125 -15.59375 Z M 11.578125 -15.59375 "/></g></g><g transform="translate(106.183591, 240.265254)"><g><path d="M 14.53125 -20.265625 C 16.707031 -20.265625 18.429688 -19.351562 19.703125 -17.53125 C 20.972656 -15.71875 21.609375 -13.207031 21.609375 -10 C 21.609375 -6.769531 20.960938 -4.234375 19.671875 -2.390625 C 18.390625 -0.554688 16.609375 0.359375 14.328125 0.359375 C 13.585938 0.359375 12.929688 0.273438 12.359375 0.109375 C 11.785156 -0.046875 11.269531 -0.265625 10.8125 -0.546875 C 10.363281 -0.828125 9.84375 -1.296875 9.25 -1.953125 L 8.828125 -1.953125 L 7.734375 0 L 2.375 0 L 2.375 -27.359375 L 9.25 -27.359375 L 9.25 -21.171875 C 9.25 -20.429688 9.164062 -19.15625 9 -17.34375 L 9.25 -17.34375 C 9.914062 -18.375 10.6875 -19.117188 11.5625 -19.578125 C 12.4375 -20.035156 13.425781 -20.265625 14.53125 -20.265625 Z M 12.03125 -14.875 C 11.0625 -14.875 10.351562 -14.539062 9.90625 -13.875 C 9.46875 -13.207031 9.25 -12.15625 9.25 -10.71875 L 9.25 -9.75 C 9.25 -8.125 9.46875 -6.957031 9.90625 -6.25 C 10.351562 -5.539062 11.082031 -5.1875 12.09375 -5.1875 C 12.90625 -5.1875 13.523438 -5.597656 13.953125 -6.421875 C 14.390625 -7.253906 14.609375 -8.472656 14.609375 -10.078125 C 14.609375 -13.273438 13.75 -14.875 12.03125 -14.875 Z M 12.03125 -14.875 "/></g></g><g transform="translate(129.33398, 240.265254)"><g/></g><g transform="translate(138.685542, 240.265254)"><g><path d="M 24.59375 -13.390625 C 24.59375 -9.109375 23.410156 -5.804688 21.046875 -3.484375 C 18.691406 -1.160156 15.375 0 11.09375 0 L 2.78125 0 L 2.78125 -25.703125 L 11.671875 -25.703125 C 15.796875 -25.703125 18.976562 -24.644531 21.21875 -22.53125 C 23.46875 -20.425781 24.59375 -17.378906 24.59375 -13.390625 Z M 17.390625 -13.15625 C 17.390625 -15.507812 16.921875 -17.253906 15.984375 -18.390625 C 15.054688 -19.523438 13.644531 -20.09375 11.75 -20.09375 L 9.71875 -20.09375 L 9.71875 -5.703125 L 11.265625 -5.703125 C 13.378906 -5.703125 14.925781 -6.3125 15.90625 -7.53125 C 16.894531 -8.757812 17.390625 -10.632812 17.390625 -13.15625 Z M 17.390625 -13.15625 "/></g></g><g transform="translate(165.105463, 240.265254)"><g><path d="M 11.984375 0.359375 C 8.671875 0.359375 6.097656 -0.519531 4.265625 -2.28125 C 2.429688 -4.050781 1.515625 -6.566406 1.515625 -9.828125 C 1.515625 -13.191406 2.363281 -15.769531 4.0625 -17.5625 C 5.757812 -19.363281 8.1875 -20.265625 11.34375 -20.265625 C 14.34375 -20.265625 16.660156 -19.484375 18.296875 -17.921875 C 19.929688 -16.359375 20.75 -14.101562 20.75 -11.15625 L 20.75 -8.109375 L 8.453125 -8.109375 C 8.503906 -6.992188 8.910156 -6.117188 9.671875 -5.484375 C 10.441406 -4.847656 11.488281 -4.53125 12.8125 -4.53125 C 14.019531 -4.53125 15.128906 -4.644531 16.140625 -4.875 C 17.160156 -5.101562 18.257812 -5.492188 19.4375 -6.046875 L 19.4375 -1.109375 C 18.363281 -0.554688 17.25 -0.175781 16.09375 0.03125 C 14.945312 0.25 13.578125 0.359375 11.984375 0.359375 Z M 11.578125 -15.59375 C 10.773438 -15.59375 10.097656 -15.335938 9.546875 -14.828125 C 9.003906 -14.316406 8.6875 -13.515625 8.59375 -12.421875 L 14.5 -12.421875 C 14.476562 -13.390625 14.207031 -14.160156 13.6875 -14.734375 C 13.164062 -15.304688 12.460938 -15.59375 11.578125 -15.59375 Z M 11.578125 -15.59375 "/></g></g><g transform="translate(187.359367, 240.265254)"><g><path d="M 7.59375 0 L 0 -19.921875 L 7.171875 -19.921875 L 10.546875 -8.140625 C 10.554688 -8.078125 10.578125 -7.972656 10.609375 -7.828125 C 10.648438 -7.691406 10.6875 -7.523438 10.71875 -7.328125 C 10.757812 -7.140625 10.789062 -6.9375 10.8125 -6.71875 C 10.84375 -6.507812 10.859375 -6.3125 10.859375 -6.125 L 10.984375 -6.125 C 10.984375 -6.726562 11.085938 -7.390625 11.296875 -8.109375 L 14.84375 -19.921875 L 21.984375 -19.921875 L 14.390625 0 Z M 7.59375 0 "/></g></g><g transform="translate(209.3496, 240.265254)"><g><path d="M 11.984375 0.359375 C 8.671875 0.359375 6.097656 -0.519531 4.265625 -2.28125 C 2.429688 -4.050781 1.515625 -6.566406 1.515625 -9.828125 C 1.515625 -13.191406 2.363281 -15.769531 4.0625 -17.5625 C 5.757812 -19.363281 8.1875 -20.265625 11.34375 -20.265625 C 14.34375 -20.265625 16.660156 -19.484375 18.296875 -17.921875 C 19.929688 -16.359375 20.75 -14.101562 20.75 -11.15625 L 20.75 -8.109375 L 8.453125 -8.109375 C 8.503906 -6.992188 8.910156 -6.117188 9.671875 -5.484375 C 10.441406 -4.847656 11.488281 -4.53125 12.8125 -4.53125 C 14.019531 -4.53125 15.128906 -4.644531 16.140625 -4.875 C 17.160156 -5.101562 18.257812 -5.492188 19.4375 -6.046875 L 19.4375 -1.109375 C 18.363281 -0.554688 17.25 -0.175781 16.09375 0.03125 C 14.945312 0.25 13.578125 0.359375 11.984375 0.359375 Z M 11.578125 -15.59375 C 10.773438 -15.59375 10.097656 -15.335938 9.546875 -14.828125 C 9.003906 -14.316406 8.6875 -13.515625 8.59375 -12.421875 L 14.5 -12.421875 C 14.476562 -13.390625 14.207031 -14.160156 13.6875 -14.734375 C 13.164062 -15.304688 12.460938 -15.59375 11.578125 -15.59375 Z M 11.578125 -15.59375 "/></g></g><g transform="translate(231.603505, 240.265254)"><g><path d="M 9.25 0 L 2.375 0 L 2.375 -27.359375 L 9.25 -27.359375 Z M 9.25 0 "/></g></g><g transform="translate(243.240223, 240.265254)"><g><path d="M 21.390625 -10 C 21.390625 -6.738281 20.515625 -4.195312 18.765625 -2.375 C 17.015625 -0.550781 14.5625 0.359375 11.40625 0.359375 C 8.382812 0.359375 5.976562 -0.570312 4.1875 -2.4375 C 2.40625 -4.300781 1.515625 -6.820312 1.515625 -10 C 1.515625 -13.25 2.390625 -15.769531 4.140625 -17.5625 C 5.890625 -19.363281 8.347656 -20.265625 11.515625 -20.265625 C 13.472656 -20.265625 15.203125 -19.847656 16.703125 -19.015625 C 18.203125 -18.179688 19.359375 -16.988281 20.171875 -15.4375 C 20.984375 -13.882812 21.390625 -12.070312 21.390625 -10 Z M 8.484375 -10 C 8.484375 -8.289062 8.710938 -6.988281 9.171875 -6.09375 C 9.628906 -5.195312 10.398438 -4.75 11.484375 -4.75 C 12.546875 -4.75 13.296875 -5.195312 13.734375 -6.09375 C 14.171875 -6.988281 14.390625 -8.289062 14.390625 -10 C 14.390625 -11.695312 14.164062 -12.976562 13.71875 -13.84375 C 13.28125 -14.71875 12.519531 -15.15625 11.4375 -15.15625 C 10.382812 -15.15625 9.628906 -14.722656 9.171875 -13.859375 C 8.710938 -12.992188 8.484375 -11.707031 8.484375 -10 Z M 8.484375 -10 "/></g></g><g transform="translate(266.179675, 240.265254)"><g><path d="M 14.328125 0.359375 C 13.316406 0.359375 12.410156 0.191406 11.609375 -0.140625 C 10.816406 -0.484375 10.03125 -1.085938 9.25 -1.953125 L 8.9375 -1.953125 C 9.144531 -0.554688 9.25 0.3125 9.25 0.65625 L 9.25 8.65625 L 2.375 8.65625 L 2.375 -19.921875 L 7.96875 -19.921875 L 8.9375 -17.390625 L 9.25 -17.390625 C 10.519531 -19.304688 12.28125 -20.265625 14.53125 -20.265625 C 16.738281 -20.265625 18.46875 -19.347656 19.71875 -17.515625 C 20.976562 -15.691406 21.609375 -13.1875 21.609375 -10 C 21.609375 -6.789062 20.953125 -4.257812 19.640625 -2.40625 C 18.335938 -0.5625 16.566406 0.359375 14.328125 0.359375 Z M 12.03125 -14.875 C 11.019531 -14.875 10.3125 -14.507812 9.90625 -13.78125 C 9.5 -13.0625 9.28125 -11.992188 9.25 -10.578125 L 9.25 -10.03125 C 9.25 -8.320312 9.476562 -7.085938 9.9375 -6.328125 C 10.394531 -5.566406 11.113281 -5.1875 12.09375 -5.1875 C 12.96875 -5.1875 13.601562 -5.5625 14 -6.3125 C 14.40625 -7.070312 14.609375 -8.328125 14.609375 -10.078125 C 14.609375 -11.785156 14.40625 -13.007812 14 -13.75 C 13.601562 -14.5 12.945312 -14.875 12.03125 -14.875 Z M 12.03125 -14.875 "/></g></g><g transform="translate(289.330064, 240.265254)"><g><path d="M 11.984375 0.359375 C 8.671875 0.359375 6.097656 -0.519531 4.265625 -2.28125 C 2.429688 -4.050781 1.515625 -6.566406 1.515625 -9.828125 C 1.515625 -13.191406 2.363281 -15.769531 4.0625 -17.5625 C 5.757812 -19.363281 8.1875 -20.265625 11.34375 -20.265625 C 14.34375 -20.265625 16.660156 -19.484375 18.296875 -17.921875 C 19.929688 -16.359375 20.75 -14.101562 20.75 -11.15625 L 20.75 -8.109375 L 8.453125 -8.109375 C 8.503906 -6.992188 8.910156 -6.117188 9.671875 -5.484375 C 10.441406 -4.847656 11.488281 -4.53125 12.8125 -4.53125 C 14.019531 -4.53125 15.128906 -4.644531 16.140625 -4.875 C 17.160156 -5.101562 18.257812 -5.492188 19.4375 -6.046875 L 19.4375 -1.109375 C 18.363281 -0.554688 17.25 -0.175781 16.09375 0.03125 C 14.945312 0.25 13.578125 0.359375 11.984375 0.359375 Z M 11.578125 -15.59375 C 10.773438 -15.59375 10.097656 -15.335938 9.546875 -14.828125 C 9.003906 -14.316406 8.6875 -13.515625 8.59375 -12.421875 L 14.5 -12.421875 C 14.476562 -13.390625 14.207031 -14.160156 13.6875 -14.734375 C 13.164062 -15.304688 12.460938 -15.59375 11.578125 -15.59375 Z M 11.578125 -15.59375 "/></g></g><g transform="translate(311.583968, 240.265254)"><g><path d="M 14.390625 -20.265625 C 14.992188 -20.265625 15.566406 -20.21875 16.109375 -20.125 L 16.484375 -20.0625 L 15.875 -13.578125 C 15.3125 -13.710938 14.53125 -13.78125 13.53125 -13.78125 C 12.03125 -13.78125 10.941406 -13.4375 10.265625 -12.75 C 9.585938 -12.0625 9.25 -11.078125 9.25 -9.796875 L 9.25 0 L 2.375 0 L 2.375 -19.921875 L 7.484375 -19.921875 L 8.5625 -16.734375 L 8.890625 -16.734375 C 9.460938 -17.785156 10.257812 -18.632812 11.28125 -19.28125 C 12.3125 -19.9375 13.347656 -20.265625 14.390625 -20.265625 Z M 14.390625 -20.265625 "/></g></g></g></svg>